<svg xmlns="http://www.w3.org/2000/svg" width="1200" height="760" viewBox="0 0 1200 760" fill="none">
  <rect width="1200" height="760" rx="40" fill="#f7fbfa"/>
  <rect x="30" y="30" width="1140" height="700" rx="34" fill="url(#panelGradient)" stroke="rgba(32,40,52,0.06)"/>
  <circle cx="845" cy="282" r="151" fill="#e8bc85" fill-opacity="0.88"/>
  <circle cx="203" cy="559" r="138" fill="#dbeee8" fill-opacity="0.92"/>
  <path d="M0 610C130 560 180 516 282 516C388 516 444 608 548 608C652 608 718 502 824 502C952 502 1042 612 1200 574V760H0V610Z" fill="#dbeee8" fill-opacity="0.92"/>
  <path d="M880 150c42 72 56 128 56 196 0 156-104 260-252 260-66 0-118-18-170-46 44-2 92-26 118-64 26-38 38-84 38-132 0-142-90-246-238-246 56-26 112-38 182-38 110 0 212 42 266 70Z" fill="#71a79c" fill-opacity="0.18"/>
  <rect x="54" y="54" width="340" height="62" rx="31" fill="white" fill-opacity="0.88" stroke="rgba(32,40,52,0.07)"/>
  <text x="88" y="93" font-size="28" font-family="Arial, sans-serif" fill="#1d3f3b" letter-spacing="5.2">REINIGUNGSKRAFT</text>
  <rect x="72" y="574" width="220" height="54" rx="27" fill="white" fill-opacity="0.88" stroke="rgba(32,40,52,0.07)"/>
  <text x="108" y="608" font-size="24" font-family="Arial, sans-serif" fill="#1d3f3b" opacity="0.78" letter-spacing="2.4">REINIGUNG GEBÄUDEMANAGEMENT</text>
  <rect x="76" y="128" width="114" height="114" rx="30" fill="white" fill-opacity="0.92" stroke="rgba(32,40,52,0.06)"/>
  <g transform="translate(88 140)" style="color:#71a79c"><path d="M40 12l4 12 12 4-12 4-4 12-4-12-12-4 12-4z" fill="none" stroke="currentColor" stroke-width="2.8" stroke-linejoin="round"/><path d="M56 44l2 6 6 2-6 2-2 6-2-6-6-2 6-2z" fill="none" stroke="currentColor" stroke-width="2.8"/></g>

  <rect x="742" y="194" width="310" height="334" rx="48" fill="#dbeee8" fill-opacity="0.76" stroke="rgba(32,40,52,0.06)"/>
  <circle cx="842" cy="296" r="96" fill="#e8bc85" fill-opacity="0.84"/>
  <rect x="904" y="248" width="92" height="212" rx="34" fill="white" fill-opacity="0.88"/>
  <rect x="922" y="286" width="56" height="72" rx="18" fill="#71a79c" fill-opacity="0.72"/>

  <path d="M742 638c90-40 170-44 264-10 94 34 126 102 170 114" stroke="#71a79c" stroke-opacity="0.34" stroke-width="5" stroke-linecap="round"/>
  <path d="M120 520c52-66 118-106 182-126 74-22 154-10 222 46" stroke="#71a79c" stroke-opacity="0.22" stroke-width="5" stroke-linecap="round"/>
  <defs>
    <linearGradient id="panelGradient" x1="88" y1="78" x2="1130" y2="700" gradientUnits="userSpaceOnUse">
      <stop stop-color="white" stop-opacity="0.98"/>
      <stop offset="1" stop-color="#f7fbfa" stop-opacity="0.92"/>
    </linearGradient>
  </defs>
</svg>
